<svg width="100" height="100" viewBox="0 0 100 100" fill="none" xmlns="http://www.w3.org/2000/svg">
<path d="M54.6875 12.5V25C54.6875 26.2432 54.1936 27.4355 53.3146 28.3146C52.4355 29.1936 51.2432 29.6875 50 29.6875C48.7568 29.6875 47.5645 29.1936 46.6854 28.3146C45.8064 27.4355 45.3125 26.2432 45.3125 25V12.5C45.3125 11.2568 45.8064 10.0645 46.6854 9.18544C47.5645 8.30636 48.7568 7.8125 50 7.8125C51.2432 7.8125 52.4355 8.30636 53.3146 9.18544C54.1936 10.0645 54.6875 11.2568 54.6875 12.5ZM67.6953 36.9922C68.3062 36.9972 68.9117 36.8787 69.4756 36.6438C70.0395 36.4088 70.55 36.0623 70.9766 35.625L79.8437 26.7969C80.7243 25.9163 81.2191 24.7219 81.2191 23.4766C81.2191 22.2312 80.7243 21.0369 79.8437 20.1562C78.9631 19.2756 77.7688 18.7809 76.5234 18.7809C75.2781 18.7809 74.0837 19.2756 73.2031 20.1562L64.375 29.0234C63.9392 29.4556 63.5933 29.9698 63.3572 30.5363C63.1211 31.1028 62.9996 31.7105 62.9996 32.3242C62.9996 32.938 63.1211 33.5456 63.3572 34.1122C63.5933 34.6787 63.9392 35.1929 64.375 35.625C64.8061 36.0671 65.323 36.4164 65.8939 36.6515C66.4649 36.8866 67.0779 37.0026 67.6953 36.9922ZM87.5 45.3125H75C73.7568 45.3125 72.5645 45.8064 71.6854 46.6854C70.8064 47.5645 70.3125 48.7568 70.3125 50C70.3125 51.2432 70.8064 52.4355 71.6854 53.3146C72.5645 54.1936 73.7568 54.6875 75 54.6875H87.5C88.7432 54.6875 89.9355 54.1936 90.8146 53.3146C91.6936 52.4355 92.1875 51.2432 92.1875 50C92.1875 48.7568 91.6936 47.5645 90.8146 46.6854C89.9355 45.8064 88.7432 45.3125 87.5 45.3125ZM70.9766 64.375C70.0779 63.627 68.9321 63.2418 67.764 63.2951C66.5959 63.3484 65.49 63.8364 64.6632 64.6632C63.8364 65.49 63.3484 66.5959 63.2951 67.764C63.2418 68.9321 63.627 70.0779 64.375 70.9766L73.2031 79.8437C73.6396 80.2787 74.1574 80.6233 74.7272 80.8579C75.2969 81.0925 75.9073 81.2124 76.5234 81.2109C77.7661 81.2055 78.9576 80.715 79.8437 79.8437C80.2807 79.4083 80.6275 78.8908 80.8641 78.321C81.1007 77.7512 81.2224 77.1404 81.2224 76.5234C81.2224 75.9065 81.1007 75.2956 80.8641 74.7258C80.6275 74.1561 80.2807 73.6386 79.8437 73.2031L70.9766 64.375ZM50 70.3125C48.7568 70.3125 47.5645 70.8064 46.6854 71.6854C45.8064 72.5645 45.3125 73.7568 45.3125 75V87.5C45.3125 88.7432 45.8064 89.9355 46.6854 90.8146C47.5645 91.6936 48.7568 92.1875 50 92.1875C51.2432 92.1875 52.4355 91.6936 53.3146 90.8146C54.1936 89.9355 54.6875 88.7432 54.6875 87.5V75C54.6875 73.7568 54.1936 72.5645 53.3146 71.6854C52.4355 70.8064 51.2432 70.3125 50 70.3125ZM29.0234 64.375L20.1562 73.2031C19.7192 73.6386 19.3725 74.1561 19.1359 74.7258C18.8993 75.2956 18.7776 75.9065 18.7776 76.5234C18.7776 77.1404 18.8993 77.7512 19.1359 78.321C19.3725 78.8908 19.7192 79.4083 20.1562 79.8437C21.0424 80.715 22.2339 81.2055 23.4766 81.2109C24.0927 81.2124 24.7031 81.0925 25.2728 80.8579C25.8426 80.6233 26.3604 80.2787 26.7969 79.8437L35.625 70.9766C36.373 70.0779 36.7582 68.9321 36.7049 67.764C36.6516 66.5959 36.1636 65.49 35.3368 64.6632C34.51 63.8364 33.4041 63.3484 32.236 63.2951C31.0679 63.2418 29.9221 63.627 29.0234 64.375ZM29.6875 50C29.6875 48.7568 29.1936 47.5645 28.3146 46.6854C27.4355 45.8064 26.2432 45.3125 25 45.3125H12.5C11.2568 45.3125 10.0645 45.8064 9.18544 46.6854C8.30636 47.5645 7.8125 48.7568 7.8125 50C7.8125 51.2432 8.30636 52.4355 9.18544 53.3146C10.0645 54.1936 11.2568 54.6875 12.5 54.6875H25C26.2432 54.6875 27.4355 54.1936 28.3146 53.3146C29.1936 52.4355 29.6875 51.2432 29.6875 50ZM26.7969 20.1562C26.3608 19.7202 25.8432 19.3743 25.2735 19.1384C24.7038 18.9024 24.0932 18.7809 23.4766 18.7809C22.8599 18.7809 22.2493 18.9024 21.6796 19.1384C21.1099 19.3743 20.5923 19.7202 20.1562 20.1562C19.7202 20.5923 19.3743 21.1099 19.1384 21.6796C18.9024 22.2493 18.7809 22.8599 18.7809 23.4766C18.7809 24.0932 18.9024 24.7038 19.1384 25.2735C19.3743 25.8432 19.7202 26.3608 20.1562 26.7969L29.0234 35.625C29.9014 36.4957 31.0878 36.9842 32.3242 36.9842C33.5607 36.9842 34.7471 36.4957 35.625 35.625C36.0608 35.1929 36.4067 34.6787 36.6428 34.1122C36.8789 33.5456 37.0004 32.938 37.0004 32.3242C37.0004 31.7105 36.8789 31.1028 36.6428 30.5363C36.4067 29.9698 36.0608 29.4556 35.625 29.0234L26.7969 20.1562Z" fill="#22253F"/>
</svg>
